<svg width="43" height="44" viewBox="0 0 43 44" fill="none" xmlns="http://www.w3.org/2000/svg">
<path d="M5.64815 0.040941C7.30724 -0.0643506 9.65284 0.0667367 11.4084 0.0663593L24.1834 0.059433C26.7988 0.0593886 29.4194 0.079146 32.0366 0.057324C34.0037 0.0409186 36.0437 -0.0866164 38.0139 0.114332C39.046 0.219602 40.0457 0.709786 40.8581 1.35124C41.9952 2.23899 42.7263 3.55255 42.8851 4.99224C43.0515 6.40504 42.9741 9.29795 42.9792 10.7838L42.9863 22.2829L42.9882 33.0267L42.996 36.2301C42.9977 36.9549 43.0191 37.7228 42.9422 38.4438C42.6095 41.5679 40.3471 43.5876 37.2837 43.9501C36.5832 44.0421 35.5057 43.9801 34.79 43.973C33.6168 43.9626 32.4438 43.9584 31.2706 43.961L18.522 43.9568L9.73358 43.9617C8.28412 43.9657 6.60401 44.0374 5.19073 43.9211C4.15653 43.8358 2.67955 43.1847 1.92362 42.4841C0.724447 41.3728 0.0708214 39.8823 0.0415852 38.2411C0.00694709 36.2974 0.0362056 34.3134 0.0371316 32.3663L0.0963319 18.4147L0.0299 9.09902C0.0233075 8.07993 -0.0501137 5.4884 0.060856 4.60069C0.191272 3.61422 0.616167 2.6909 1.27927 1.95293C2.48413 0.591463 3.89757 0.143746 5.64815 0.040941ZM35.8256 39.3782C36.6921 39.2541 37.4742 38.7895 38.0011 38.086C38.4286 37.5154 38.4959 37.1878 38.5314 36.4849C38.6242 34.6482 38.5872 32.7967 38.5876 30.9564L38.592 21.1445C38.6279 18.083 38.644 15.0212 38.6401 11.9595C38.6469 10.4982 38.6703 9.09218 38.6116 7.62871C38.5442 5.94828 37.5242 4.59685 35.7597 4.5596C33.8847 4.52004 31.9942 4.55634 30.1142 4.5582C25.8687 4.54619 21.6231 4.57641 17.3781 4.64882C16.3573 4.66307 15.3532 4.73773 14.341 4.74703C12.5718 4.76326 10.775 4.62016 9.0018 4.63102C8.48778 4.63415 7.26476 4.53802 6.85117 4.59938C5.04803 4.76193 4.11937 5.64966 3.96982 7.51671C3.76592 10.0623 3.91728 12.6259 4.00437 15.1731C4.0394 16.1314 3.98329 17.1686 3.98874 18.1372L4.06364 24.8125C4.08238 26.5498 4.13388 28.4428 4.10184 30.1657C4.07548 31.4994 4.06432 32.8334 4.0684 34.1675C4.06516 35.8545 3.80362 37.5712 5.25806 38.7007C5.71892 39.0587 6.13601 39.2956 6.73667 39.3358C10.2298 39.5234 13.7705 39.3735 17.2674 39.3904C21.1208 39.4266 24.9745 39.4348 28.8281 39.4146C31.1482 39.4188 33.5063 39.4994 35.8256 39.3782Z" fill="#E8E8E8"/>
<path d="M10.7637 7.91616C11.6298 7.78181 13.4296 8.06221 14.2975 8.23387C20.4643 9.45373 26.3208 13.1963 29.8794 18.4467C32.0099 21.5897 33.563 26.4929 32.8211 30.3252C32.3993 32.5038 31.2329 33.9301 29.4053 35.1253C26.0707 37.0742 20.8153 36.2373 17.5671 34.5333C9.84293 30.4814 7.42363 20.6924 8.55367 12.5875C8.70499 11.5022 8.81728 10.3262 9.10583 9.27241C9.33006 8.45347 9.96684 8.00245 10.7637 7.91616Z" fill="#E8E8E8"/>
</svg>
